<svg width="275" height="227" viewBox="0 0 275 227" fill="none" xmlns="http://www.w3.org/2000/svg">
<path d="M20.004 191.553C19.7668 191.553 19.5384 191.449 19.3364 191.242L1.65162 167.613V190.725C1.65162 191.277 1.37045 191.553 0.825765 191.553C0.272292 191.553 0 191.277 0 190.725V165.131C0 164.717 0.18444 164.459 0.562207 164.355C0.913618 164.253 1.22115 164.338 1.4935 164.614L19.1783 188.243V165.131C19.1783 164.58 19.4506 164.303 20.004 164.303C20.5575 164.303 20.8299 164.58 20.8299 165.131V190.725C20.8299 191.139 20.6454 191.397 20.2676 191.501C20.2324 191.535 20.1446 191.553 20.004 191.553Z" fill="white"/>
<path d="M27.1906 191.553C26.6459 191.553 26.3647 191.277 26.3647 190.725V165.131C26.3647 164.58 26.6459 164.303 27.1906 164.303C27.7441 164.303 28.0252 164.58 28.0252 165.131V190.725C28.0252 191.277 27.7441 191.553 27.1906 191.553Z" fill="white"/>
<path d="M53.1509 190.157C53.3178 190.329 53.4056 190.519 53.4056 190.725C53.4056 190.932 53.3178 191.122 53.1509 191.294C52.9752 191.467 52.7907 191.553 52.5798 191.553C52.3778 191.553 52.1845 191.467 52.0088 191.294L39.4458 178.73H36.1864C35.6418 178.73 35.3607 178.455 35.3607 177.902C35.3607 177.695 35.4397 177.514 35.5978 177.359C35.7472 177.205 35.9492 177.126 36.1864 177.126H39.3404L47.6162 164.665C47.7567 164.493 47.9324 164.381 48.1608 164.329C48.3804 164.278 48.5825 164.322 48.7582 164.459C49.2063 164.735 49.2853 165.113 49.013 165.596L40.8427 177.798L53.1509 190.157ZM33.3927 164.303C33.9462 164.303 34.2273 164.58 34.2273 165.131V190.725C34.2273 191.277 33.9462 191.553 33.3927 191.553C32.8481 191.553 32.5669 191.277 32.5669 190.725V165.131C32.5669 164.58 32.8481 164.303 33.3927 164.303Z" fill="white"/>
<path d="M66.1268 164.303C67.4007 164.303 68.6131 164.546 69.7464 165.027C70.8885 165.51 71.8813 166.183 72.7422 167.044C73.6032 167.906 74.2796 168.905 74.7628 170.043C75.246 171.181 75.4832 172.388 75.4832 173.662V190.725C75.4832 191.277 75.2109 191.553 74.6574 191.553C74.1039 191.553 73.8315 191.277 73.8315 190.725V183.021H60.3901C59.8366 183.021 59.5643 182.745 59.5643 182.194C59.5643 181.642 59.8366 181.366 60.3901 181.366H73.8315V173.662C73.8315 172.595 73.6207 171.594 73.2078 170.663C72.7949 169.733 72.2415 168.923 71.5562 168.233C70.871 167.544 70.0539 166.992 69.1227 166.579C68.2002 166.165 67.1986 165.959 66.1268 165.959C65.055 165.959 64.0623 166.165 63.1311 166.579C62.1998 166.992 61.3828 167.544 60.6712 168.233C59.9684 168.923 59.4149 169.733 59.0196 170.663C58.6243 171.594 58.4222 172.595 58.4222 173.662V190.725C58.4222 191.277 58.1498 191.553 57.5964 191.553C57.0429 191.553 56.7705 191.277 56.7705 190.725V173.662C56.7705 172.388 57.0077 171.181 57.4909 170.043C57.9741 168.905 58.6506 167.906 59.5115 167.044C60.3725 166.183 61.3652 165.51 62.4809 165.027C63.6055 164.546 64.8178 164.303 66.1268 164.303Z" fill="white"/>
<path d="M102.577 191.553H91.9293C91.3758 191.553 91.1035 191.277 91.1035 190.725V165.131C91.1035 164.58 91.3758 164.303 91.9293 164.303C92.4828 164.303 92.7551 164.58 92.7551 165.131V189.897H102.577C103.131 189.897 103.403 190.174 103.403 190.725C103.403 191.277 103.131 191.553 102.577 191.553Z" fill="white"/>
<path d="M116.537 165.7C114.885 165.7 113.33 166.018 111.889 166.656C110.44 167.294 109.175 168.165 108.085 169.268C107.005 170.371 106.144 171.664 105.529 173.146C104.905 174.628 104.597 176.214 104.597 177.902C104.597 179.592 104.905 181.178 105.529 182.66C106.144 184.142 107.005 185.444 108.085 186.563C109.175 187.683 110.44 188.562 111.889 189.2C113.33 189.839 114.885 190.157 116.537 190.157C118.197 190.157 119.743 189.839 121.193 189.2C122.642 188.562 123.908 187.683 124.997 186.563C126.078 185.444 126.938 184.142 127.58 182.66C128.212 181.178 128.537 179.592 128.537 177.902C128.537 176.214 128.212 174.628 127.58 173.146C126.938 171.664 126.078 170.371 124.997 169.268C123.908 168.165 122.642 167.294 121.193 166.656C119.743 166.018 118.197 165.7 116.537 165.7ZM116.537 191.811C114.674 191.811 112.917 191.449 111.266 190.725C109.614 190.002 108.164 189.002 106.926 187.726C105.678 186.451 104.703 184.978 104 183.305C103.297 181.634 102.937 179.833 102.937 177.902C102.937 176.007 103.297 174.214 104 172.526C104.703 170.837 105.678 169.363 106.926 168.104C108.164 166.846 109.614 165.855 111.266 165.131C112.917 164.407 114.674 164.045 116.537 164.045C118.434 164.045 120.209 164.407 121.861 165.131C123.521 165.855 124.971 166.846 126.209 168.104C127.448 169.363 128.423 170.837 129.126 172.526C129.838 174.214 130.189 176.007 130.189 177.902C130.189 179.833 129.838 181.634 129.126 183.305C128.423 184.978 127.448 186.451 126.209 187.726C124.971 189.002 123.521 190.002 121.861 190.725C120.209 191.449 118.434 191.811 116.537 191.811Z" fill="white"/>
<path d="M135.979 189.897H143.683C144.755 189.897 145.757 189.7 146.688 189.303C147.61 188.907 148.428 188.356 149.113 187.649C149.807 186.943 150.351 186.123 150.773 185.192C151.186 184.262 151.388 183.262 151.388 182.194C151.388 181.126 151.186 180.126 150.773 179.194C150.351 178.264 149.807 177.455 149.113 176.765C148.428 176.076 147.61 175.524 146.688 175.11C145.757 174.696 144.755 174.49 143.683 174.49H137.947C137.393 174.49 137.121 174.214 137.121 173.662C137.121 173.112 137.393 172.835 137.947 172.835H143.683C144.65 172.835 145.467 172.499 146.143 171.827C146.811 171.155 147.154 170.336 147.154 169.371C147.154 168.439 146.811 167.638 146.143 166.966C145.467 166.294 144.65 165.959 143.683 165.959H135.979V189.897ZM143.683 191.553H135.153C134.599 191.553 134.327 191.277 134.327 190.725V165.131C134.327 164.58 134.599 164.303 135.153 164.303H143.683C145.098 164.303 146.293 164.795 147.277 165.778C148.261 166.76 148.753 167.957 148.753 169.371C148.753 170.198 148.577 170.956 148.234 171.646C147.892 172.336 147.426 172.922 146.837 173.404C148.665 174.059 150.158 175.18 151.309 176.765C152.469 178.35 153.04 180.16 153.04 182.194C153.04 183.504 152.803 184.719 152.319 185.839C151.836 186.96 151.168 187.951 150.308 188.813C149.438 189.674 148.445 190.347 147.303 190.829C146.17 191.311 144.957 191.553 143.683 191.553Z" fill="white"/>
<path d="M166.85 164.303C168.124 164.303 169.327 164.546 170.47 165.027C171.603 165.51 172.604 166.183 173.465 167.044C174.326 167.906 175.003 168.905 175.486 170.043C175.969 171.181 176.206 172.388 176.206 173.662V190.725C176.206 191.277 175.934 191.553 175.381 191.553C174.827 191.553 174.555 191.277 174.555 190.725V183.021H161.104C160.56 183.021 160.279 182.745 160.279 182.194C160.279 181.642 160.56 181.366 161.104 181.366H174.555V173.662C174.555 172.595 174.344 171.594 173.931 170.663C173.518 169.733 172.965 168.923 172.279 168.233C171.585 167.544 170.777 166.992 169.846 166.579C168.915 166.165 167.913 165.959 166.85 165.959C165.778 165.959 164.777 166.165 163.854 166.579C162.923 166.992 162.097 167.544 161.394 168.233C160.683 168.923 160.138 169.733 159.743 170.663C159.339 171.594 159.145 172.595 159.145 173.662V190.725C159.145 191.277 158.864 191.553 158.32 191.553C157.766 191.553 157.494 191.277 157.494 190.725V173.662C157.494 172.388 157.731 171.181 158.214 170.043C158.697 168.905 159.365 167.906 160.226 167.044C161.096 166.183 162.08 165.51 163.204 165.027C164.32 164.546 165.541 164.303 166.85 164.303Z" fill="white"/>
<path d="M200.77 191.553C200.524 191.553 200.305 191.449 200.094 191.242L182.409 167.613V190.725C182.409 191.277 182.137 191.553 181.583 191.553C181.03 191.553 180.757 191.277 180.757 190.725V165.131C180.757 164.717 180.942 164.459 181.328 164.355C181.671 164.253 181.978 164.338 182.26 164.614L199.944 188.243V165.131C199.944 164.58 200.217 164.303 200.77 164.303C201.315 164.303 201.596 164.58 201.596 165.131V190.725C201.596 191.139 201.403 191.397 201.025 191.501C200.99 191.535 200.902 191.553 200.77 191.553Z" fill="white"/>
<path d="M219.333 165.7C217.673 165.7 216.127 166.018 214.677 166.656C213.228 167.294 211.963 168.165 210.873 169.268C209.793 170.371 208.94 171.664 208.317 173.146C207.693 174.628 207.386 176.214 207.386 177.902C207.386 179.592 207.693 181.178 208.317 182.66C208.94 184.142 209.793 185.444 210.873 186.563C211.963 187.683 213.228 188.562 214.677 189.2C216.127 189.839 217.673 190.157 219.333 190.157C220.985 190.157 222.531 189.839 223.981 189.2C225.431 188.562 226.696 187.683 227.785 186.563C228.866 185.444 229.726 184.142 230.368 182.66C231.009 181.178 231.325 179.592 231.325 177.902C231.325 176.214 231.009 174.628 230.368 173.146C229.726 171.664 228.866 170.371 227.785 169.268C226.696 168.165 225.431 167.294 223.981 166.656C222.531 166.018 220.985 165.7 219.333 165.7ZM219.333 191.811C217.471 191.811 215.714 191.449 214.054 190.725C212.402 190.002 210.952 189.002 209.714 187.726C208.475 186.451 207.5 184.978 206.788 183.305C206.085 181.634 205.734 179.833 205.734 177.902C205.734 176.007 206.085 174.214 206.788 172.526C207.5 170.837 208.475 169.363 209.714 168.104C210.952 166.846 212.402 165.855 214.054 165.131C215.714 164.407 217.471 164.045 219.333 164.045C221.222 164.045 222.997 164.407 224.657 165.131C226.309 165.855 227.759 166.846 228.997 168.104C230.236 169.363 231.211 170.837 231.923 172.526C232.626 174.214 232.977 176.007 232.977 177.902C232.977 179.833 232.626 181.634 231.923 183.305C231.211 184.978 230.236 186.451 228.997 187.726C227.759 189.002 226.309 190.002 224.657 190.725C222.997 191.449 221.222 191.811 219.333 191.811Z" fill="white"/>
<path d="M243.686 191.553C243.274 191.553 243.01 191.364 242.904 190.984L234.374 165.389C234.304 165.183 234.312 164.975 234.4 164.768C234.488 164.562 234.655 164.425 234.892 164.355C235.103 164.287 235.305 164.303 235.516 164.407C235.718 164.511 235.859 164.665 235.929 164.873L243.686 188.14L251.435 164.873C251.505 164.665 251.646 164.511 251.848 164.407C252.059 164.303 252.27 164.287 252.472 164.355C252.683 164.425 252.832 164.562 252.937 164.768C253.043 164.975 253.06 165.183 252.99 165.389L244.46 190.984C244.354 191.364 244.099 191.553 243.686 191.553Z" fill="white"/>
<path d="M265.193 164.303C266.467 164.303 267.67 164.546 268.812 165.027C269.946 165.51 270.947 166.183 271.808 167.044C272.669 167.906 273.345 168.905 273.829 170.043C274.312 171.181 274.549 172.388 274.549 173.662V190.725C274.549 191.277 274.277 191.553 273.723 191.553C273.17 191.553 272.897 191.277 272.897 190.725V183.021H259.456C258.903 183.021 258.621 182.745 258.621 182.194C258.621 181.642 258.903 181.366 259.456 181.366H272.897V173.662C272.897 172.595 272.687 171.594 272.274 170.663C271.861 169.733 271.307 168.923 270.622 168.233C269.928 167.544 269.12 166.992 268.189 166.579C267.257 166.165 266.265 165.959 265.193 165.959C264.121 165.959 263.128 166.165 262.197 166.579C261.266 166.992 260.44 167.544 259.737 168.233C259.034 168.923 258.481 169.733 258.085 170.663C257.69 171.594 257.488 172.595 257.488 173.662V190.725C257.488 191.277 257.216 191.553 256.662 191.553C256.109 191.553 255.836 191.277 255.836 190.725V173.662C255.836 172.388 256.074 171.181 256.557 170.043C257.04 168.905 257.708 167.906 258.577 167.044C259.438 166.183 260.422 165.51 261.547 165.027C262.663 164.546 263.884 164.303 265.193 164.303Z" fill="white"/>
<path d="M64.4578 222.106C66.2236 222.106 67.3482 220.769 67.3482 218.716C67.3482 216.664 66.2236 215.327 64.4578 215.327C62.6919 215.327 61.5851 216.647 61.5851 218.716C61.5851 220.784 62.6919 222.106 64.4578 222.106ZM60.6274 214.468H61.5851V215.964C62.3143 214.817 63.2191 214.293 64.4754 214.293C66.8035 214.293 68.3322 216.075 68.3322 218.716C68.3322 221.358 66.7771 223.155 64.4754 223.155C63.2454 223.155 62.3406 222.646 61.5851 221.501V225.988H60.6274V214.468Z" fill="white"/>
<path d="M79.9815 218.032C79.8673 216.329 78.7603 215.232 77.1878 215.232C75.5888 215.232 74.4731 216.345 74.3501 218.032H79.9815ZM77.1878 223.251C74.8333 223.251 73.2959 221.421 73.2959 218.716C73.2959 216.011 74.8597 214.181 77.1878 214.181C79.5159 214.181 81.062 215.947 81.062 218.7V218.954H74.3238C74.438 221.024 75.4746 222.169 77.1878 222.169C78.4353 222.169 79.3665 221.469 79.7179 220.244H80.7897C80.4032 222.09 79.0327 223.251 77.1878 223.251Z" fill="white"/>
<path d="M86.4473 222.949V214.483H87.4224V215.884C87.8441 214.802 88.6787 214.181 89.5924 214.181C89.9262 214.181 90.2425 214.26 90.5675 214.42V215.486C90.2425 215.374 89.9613 215.327 89.7066 215.327C88.5733 215.327 87.8177 216.042 87.4224 217.475V222.949H86.4473Z" fill="white"/>
<path d="M95.7247 220.275C95.8653 221.548 96.7087 222.185 98.2549 222.185C99.9241 222.185 100.776 221.627 100.776 220.626C100.776 219.861 100.337 219.512 99.4058 219.352L97.2973 218.987C95.6984 218.716 94.9604 218.079 94.9604 216.664C94.9604 215.183 96.1201 214.181 98.2022 214.181C100.267 214.181 101.461 215.247 101.488 216.918H100.53C100.39 215.772 99.5551 215.199 98.0616 215.199C96.6823 215.199 95.9444 215.757 95.9444 216.6C95.9444 217.443 96.5066 217.714 97.6311 217.904L99.4848 218.239C101.031 218.509 101.76 219.13 101.76 220.514C101.76 222.28 100.539 223.251 98.1583 223.251C96.0674 223.251 94.8725 222.153 94.7671 220.275H95.7247Z" fill="white"/>
<path d="M110.449 222.169C112.241 222.169 113.365 220.816 113.365 218.716C113.365 216.615 112.241 215.263 110.449 215.263C108.665 215.263 107.532 216.6 107.532 218.716C107.532 220.832 108.665 222.169 110.449 222.169ZM110.449 214.181C112.777 214.181 114.349 216.011 114.349 218.716C114.349 221.421 112.777 223.251 110.449 223.251C108.12 223.251 106.557 221.421 106.557 218.716C106.557 216.011 108.12 214.181 110.449 214.181Z" fill="white"/>
<path d="M119.752 214.483H120.666V216.042C121.377 214.897 122.431 214.308 123.723 214.308C125.647 214.308 126.525 215.311 126.525 217.475V222.949H125.585V218.19C125.585 216.186 125.146 215.311 123.556 215.311C121.913 215.311 120.692 216.456 120.692 218.127V222.949H119.752V214.483Z" fill="white"/>
<path d="M135.513 219.034C133.914 219.32 133.106 219.512 133.106 220.657C133.106 221.532 133.791 222.153 134.995 222.153C136.787 222.153 138.035 221.087 138.035 219.512V218.365C137.604 218.637 136.761 218.812 135.513 219.034ZM139.8 222.837C139.537 222.933 139.265 222.996 138.992 222.996C138.342 222.996 138.096 222.614 138.035 221.659C137.2 222.742 136.251 223.155 134.907 223.155C133.115 223.155 132.148 222.217 132.148 220.626C132.148 219.861 132.403 219.257 132.913 218.812C133.431 218.365 134.292 218.207 135.496 218.016C137.262 217.729 138.035 217.825 138.035 216.695C138.035 215.772 137.332 215.279 136.005 215.279C134.336 215.279 133.475 215.932 133.405 217.252H132.465C132.57 215.263 133.703 214.277 135.882 214.277C137.2 214.277 138.061 214.547 138.562 215.279C138.966 215.852 138.992 216.504 138.992 217.364V221.119C138.992 221.676 139.001 221.962 139.388 221.962C139.493 221.962 139.634 221.945 139.8 221.882V222.837Z" fill="white"/>
<path d="M145.168 211.397H146.117V222.949H145.168V211.397Z" fill="white"/>
<path d="M160.657 220.275C160.797 221.548 161.65 222.185 163.196 222.185C164.865 222.185 165.708 221.627 165.708 220.626C165.708 219.861 165.278 219.512 164.347 219.352L162.238 218.987C160.63 218.716 159.893 218.079 159.893 216.664C159.893 215.183 161.061 214.181 163.134 214.181C165.208 214.181 166.394 215.247 166.42 216.918H165.462C165.331 215.772 164.496 215.199 163.002 215.199C161.614 215.199 160.876 215.757 160.876 216.6C160.876 217.443 161.439 217.714 162.563 217.904L164.426 218.239C165.972 218.509 166.701 219.13 166.701 220.514C166.701 222.28 165.48 223.251 163.099 223.251C160.999 223.251 159.813 222.153 159.699 220.275H160.657Z" fill="white"/>
<path d="M174.177 222.057C174.414 222.057 174.669 222.01 174.959 221.93V222.9C174.52 223.028 174.124 223.092 173.764 223.092C172.675 223.092 172.358 222.36 172.358 220.832V215.391H171.111V214.467H172.358V211.986H173.316V214.467H174.976V215.391H173.316V220.689C173.316 221.659 173.334 222.057 174.177 222.057Z" fill="white"/>
<path d="M180.195 226.004C179.949 226.004 179.677 225.94 179.378 225.844V224.779C179.774 224.874 180.072 224.922 180.309 224.922C181.153 224.922 181.513 224.318 182.031 222.917L178.71 214.467H179.8L182.523 221.802L185.273 214.467H186.327L182.576 223.967C182.058 225.304 181.68 226.004 180.195 226.004Z" fill="white"/>
<path d="M191.186 211.397H192.126V222.949H191.186V211.397Z" fill="white"/>
<path d="M198.125 214.467H199.066V222.949H198.125V214.467ZM198.125 211.397H199.066V212.717H198.125V211.397Z" fill="white"/>
<path d="M205.33 220.275C205.47 221.548 206.314 222.185 207.869 222.185C209.538 222.185 210.381 221.627 210.381 220.626C210.381 219.861 209.942 219.512 209.011 219.352L206.902 218.987C205.303 218.716 204.565 218.079 204.565 216.664C204.565 215.183 205.725 214.181 207.807 214.181C209.88 214.181 211.066 215.247 211.093 216.918H210.135C210.003 215.772 209.169 215.199 207.675 215.199C206.287 215.199 205.549 215.757 205.549 216.6C205.549 217.443 206.112 217.714 207.236 217.904L209.099 218.239C210.645 218.509 211.365 219.13 211.365 220.514C211.365 222.28 210.153 223.251 207.772 223.251C205.672 223.251 204.486 222.153 204.372 220.275H205.33Z" fill="white"/>
<path d="M218.85 222.057C219.087 222.057 219.342 222.01 219.632 221.93V222.9C219.193 223.028 218.798 223.092 218.437 223.092C217.348 223.092 217.032 222.36 217.032 220.832V215.391H215.784V214.467H217.032V211.986H217.989V214.467H219.641V215.391H217.989V220.689C217.989 221.659 218.007 222.057 218.85 222.057Z" fill="white"/>
<path d="M171.981 75.5053C171.726 75.066 171.462 74.618 171.19 74.1875C170.9 74.2666 170.601 74.3544 170.303 74.4247C170.584 74.8552 170.847 75.2944 171.111 75.7425C174.968 82.3314 177.173 89.9922 177.173 98.1625C177.173 122.717 157.195 142.704 132.64 142.704C108.085 142.704 88.1075 122.717 88.1075 98.1625C88.1075 93.9544 88.6962 89.8868 89.7856 86.03C95.0831 67.3525 112.293 53.6299 132.64 53.6299C140.477 53.6299 147.848 55.6681 154.252 59.2437C155.043 59.6742 155.825 60.1398 156.58 60.6318C156.721 60.3682 156.852 60.1047 156.993 59.8499C156.229 59.3579 155.456 58.8923 154.656 58.4618C148.137 54.8247 140.626 52.7514 132.64 52.7514C111.828 52.7514 94.2397 66.8342 88.8982 85.9686C87.8088 89.8517 87.229 93.9368 87.229 98.1625C87.229 123.209 107.602 143.582 132.64 143.582C157.687 143.582 178.051 123.209 178.051 98.1625C178.051 89.9219 175.837 82.1821 171.981 75.5053Z" fill="white"/>
<path d="M248.255 26.2813C248.132 27.3268 247.947 28.3283 247.701 29.2859C247.455 30.2347 247.121 31.2098 246.682 32.1938C241.578 42.5341 228.558 52.2945 207.631 61.4576C198.829 65.3407 189.437 68.7845 179.466 71.8066C176.76 72.6237 174.001 73.4231 171.19 74.1875C170.9 74.2665 170.602 74.3544 170.303 74.4247C163.055 76.4014 155.491 78.2023 147.61 79.8364C147.795 79.5289 147.944 79.2214 148.076 78.9139C148.199 78.6065 148.322 78.299 148.445 77.9915H148.348C150.931 71.9823 153.672 66.1928 156.58 60.6318C156.721 60.3682 156.853 60.1046 156.993 59.8499C157.766 58.3827 158.548 56.9419 159.339 55.5099C163.275 48.3939 167.588 41.6116 172.262 35.1457C187.592 13.5426 202.703 2.3941 217.603 1.71764C226.406 1.41016 233.882 3.84369 240.04 9.01822C246.19 13.9995 248.931 19.7538 248.255 26.2813ZM241.235 8.09576C234.471 2.24477 226.59 -0.434746 217.603 0.0572281C195.42 1.47166 174.432 20.9398 154.656 58.4618C154.516 58.7254 154.375 58.9801 154.252 59.2437C150.887 65.6482 147.575 72.5797 144.29 80.0209V80.302C142.743 83.8688 141.549 87.3917 140.688 90.8707C139.827 94.3497 139.458 97.6881 139.581 100.886C139.642 103.785 140.257 105.955 141.426 107.396C142.594 108.845 144.07 109.689 145.853 109.935C147.417 110.154 149.148 109.917 151.045 109.232C151.309 109.144 151.581 109.039 151.854 108.924C152.012 108.854 152.179 108.793 152.337 108.714C152.697 108.556 153.057 108.38 153.418 108.195C153.997 107.888 154.568 107.554 155.139 107.185C154.56 107.326 153.988 107.457 153.409 107.58C153.382 107.123 153.295 106.763 153.128 106.482C153.057 106.509 152.987 106.544 152.917 106.57C151.915 106.983 150.949 107.246 150.026 107.352C150.018 107.361 150.018 107.361 150.009 107.352C149.394 107.431 148.788 107.422 148.208 107.352C146.767 107.167 145.563 106.429 144.606 105.138C143.657 103.847 143.235 101.756 143.367 98.8565C143.42 96.3352 143.806 93.4887 144.518 90.3172C145.221 87.1458 146.099 84.1148 147.154 81.2245C155.262 79.6695 163.248 77.8421 171.111 75.7425C171.401 75.6634 171.691 75.5843 171.981 75.5053C172.894 75.2593 173.808 75.0133 174.713 74.7585C183.727 72.2371 192.635 69.2765 201.438 65.8941C227.047 56.2303 242.773 45.8286 248.624 34.6888C249.669 32.5276 250.346 30.2523 250.653 27.8539C251.268 20.4654 248.132 13.8765 241.235 8.09576Z" fill="white"/>
<path d="M153.409 107.58C153.382 107.123 153.295 106.763 153.128 106.482C152.891 106.016 152.46 105.779 151.863 105.779C151.423 105.779 150.949 105.902 150.431 106.148C149.904 106.403 149.64 106.702 149.64 107.079C149.64 107.264 149.763 107.352 150.009 107.352C150.018 107.361 150.018 107.361 150.026 107.352C150.325 107.352 150.668 107.396 151.028 107.492C151.327 107.563 151.599 107.703 151.836 107.905C151.889 107.94 151.942 107.993 151.994 108.046C152.161 108.204 152.276 108.432 152.337 108.713C152.372 108.828 152.39 108.951 152.399 109.091C152.416 109.179 152.416 109.276 152.416 109.381C152.416 112.403 149.491 116.401 143.64 121.391C138.342 125.88 133.941 128.621 130.435 129.605C129.636 129.851 128.74 129.974 127.756 129.974C125.665 129.974 123.969 129.297 122.678 127.944C121.263 126.407 120.684 124.219 120.93 121.391C121.167 117.077 122.985 111.296 126.377 104.031C129.882 96.704 133.818 90.238 138.193 84.6418C139.115 83.5261 139.15 82.8232 138.289 82.5158C137.481 82.1468 136.409 82.2698 135.056 82.8847C134.371 83.1307 133.607 83.6227 132.746 84.3607C131.147 84.9756 128.037 87.128 123.416 90.8266C121.448 92.4255 119.524 94.042 117.644 95.6761C115.773 97.3014 113.972 98.953 112.25 100.613C111.881 101.044 111.503 101.255 111.134 101.255C110.642 101.255 110.396 100.921 110.396 100.244C110.396 99.7525 110.519 99.3484 110.765 99.0409C112.004 96.2735 113.462 93.5501 115.158 90.8706C116.845 88.191 118.865 85.5027 121.202 82.7881C121.246 82.7442 121.281 82.709 121.307 82.6651C121.422 82.507 121.483 82.34 121.483 82.1468C121.422 82.0853 121.202 82.0853 120.833 82.1468C120.578 82.1907 120.35 82.2434 120.148 82.2961C119.805 82.384 119.524 82.4894 119.313 82.6036C118.971 82.7881 118.707 83.0341 118.522 83.3416C118.505 83.3591 118.496 83.3767 118.479 83.3943C117.266 84.8614 115.948 86.557 114.552 88.4722C113.137 90.4049 111.626 92.61 110.027 95.0699C106.645 100.244 104.246 104.338 102.832 107.352C102.463 108.09 102.393 108.582 102.647 108.828C102.7 109.197 103.078 109.32 103.754 109.197C106.276 108.643 107.848 107.967 108.463 107.167C112.092 102.924 115.65 99.1375 119.129 95.8079C122.599 92.4871 126.095 89.5967 129.61 87.128C130.102 86.8205 130.593 86.6712 131.085 86.6712C132.192 86.6712 132.746 87.1632 132.746 88.1471C132.746 88.5161 132.649 88.8236 132.465 89.0696C130.681 91.5294 129.003 94.0684 127.44 96.6864C125.867 99.3044 124.373 102.028 122.959 104.857C119.445 111.569 117.512 117.139 117.143 121.575C116.836 125.511 117.539 128.401 119.26 130.255C120.868 131.854 122.898 132.53 125.357 132.284C132.254 131.546 138.658 128.252 144.562 122.401C146.715 120.249 148.507 118.184 149.921 116.216C151.336 114.248 152.319 112.368 152.873 110.585C153.066 109.996 153.216 109.46 153.303 108.995C153.365 108.705 153.4 108.441 153.418 108.195C153.426 108.099 153.426 108.002 153.426 107.905C153.426 107.791 153.426 107.677 153.409 107.58Z" fill="white"/>
<path d="M119.832 83.0256C122.687 80.0447 125.437 76.2257 129.864 75.7057C130.76 75.6002 132.667 75.6802 132.447 77.0604C132.236 78.336 130.444 78.9791 129.425 79.3472C126.93 80.2459 124.382 81.012 121.826 81.6858C111.529 84.3952 100.89 85.3941 90.2603 84.8309C80.4998 84.3135 70.6077 82.2823 61.9366 77.6437C54.1353 73.4689 46.4041 66.1912 45.877 56.7997C45.5432 50.8609 48.17 45.0072 51.526 40.2535C54.8644 35.5341 58.9935 31.4568 63.1138 27.4393C63.2983 27.2654 63.0875 26.3965 63.0347 26.4483C58.9232 30.2119 54.7502 33.9887 51.5084 38.5465C48.4424 42.8487 46.1757 47.8194 45.631 53.1134C44.612 63.025 50.1555 71.6135 57.948 77.2659C66.7245 83.623 77.548 86.3815 88.2133 87.1546C100.065 88.0121 112.136 86.4536 123.442 82.8727C125.024 82.3737 126.588 81.836 128.134 81.258C129.364 80.802 130.734 80.3979 131.727 79.5053C132.878 78.4695 133.44 75.7856 132.017 74.6962C131.085 73.9864 129.61 74.3149 128.582 74.6005C127.448 74.9176 126.394 75.4728 125.428 76.1449C123.091 77.7843 121.29 80.0676 119.779 82.4642C119.717 82.567 119.796 83.0633 119.832 83.0256Z" fill="white"/>
<path d="M243.265 115.337C240.761 109.469 236.21 104.778 230.763 101.536C218.692 94.3582 204.126 95.5003 191.036 98.8651C183.762 100.736 176.69 103.293 169.503 105.463C164.162 107.071 158.794 108.309 153.303 108.995C153.005 109.03 152.697 109.065 152.398 109.091C151.95 109.144 151.493 109.188 151.045 109.232C149.947 109.337 148.84 109.416 147.733 109.469C147.61 109.469 147.566 108.626 147.716 108.608C149.095 108.415 150.466 108.177 151.836 107.905C152.363 107.809 152.89 107.694 153.409 107.58C153.988 107.457 154.559 107.325 155.139 107.185C161.061 105.762 166.885 103.75 172.604 101.791C186.758 96.9411 201.965 91.3537 217.163 93.7521C228.646 95.5618 239.944 102.625 243.431 114.195C243.484 114.397 243.388 115.636 243.265 115.337Z" fill="white"/>
<path d="M176.532 203.85H102.498V202.972H176.532V203.85Z" fill="white"/>
</svg>
