<svg width="65" height="53" viewBox="0 0 65 53" fill="none" xmlns="http://www.w3.org/2000/svg">
<path d="M4.69112 44.9208C4.6355 44.9208 4.58194 44.8965 4.53455 44.8479L0.387319 39.3067V44.7267C0.387319 44.8561 0.321383 44.9208 0.193649 44.9208C0.063855 44.9208 0 44.8561 0 44.7267V38.7247C0 38.6277 0.0432527 38.5671 0.131842 38.5428C0.214252 38.5187 0.286372 38.5386 0.350239 38.6035L4.49747 44.1447V38.7247C4.49747 38.5955 4.56133 38.5306 4.69112 38.5306C4.82092 38.5306 4.88479 38.5955 4.88479 38.7247V44.7267C4.88479 44.8238 4.84152 44.8843 4.75293 44.9086C4.74469 44.9167 4.72408 44.9208 4.69112 44.9208Z" fill="black"/>
<path d="M6.37677 44.9208C6.24904 44.9208 6.18311 44.8561 6.18311 44.7267V38.7247C6.18311 38.5955 6.24904 38.5306 6.37677 38.5306C6.50657 38.5306 6.5725 38.5955 6.5725 38.7247V44.7267C6.5725 44.8561 6.50657 44.9208 6.37677 44.9208Z" fill="black"/>
<path d="M12.4643 44.5935C12.5035 44.6338 12.5241 44.6783 12.5241 44.7267C12.5241 44.7753 12.5035 44.8198 12.4643 44.8602C12.4231 44.9006 12.3799 44.9208 12.3304 44.9208C12.283 44.9208 12.2377 44.9006 12.1965 44.8602L9.25038 41.9137H8.48602C8.35829 41.9137 8.29238 41.8492 8.29238 41.7196C8.29238 41.671 8.3109 41.6286 8.34799 41.5923C8.38301 41.5561 8.4304 41.5377 8.48602 41.5377H9.22565L11.1664 38.6155C11.1994 38.5751 11.2405 38.5487 11.2941 38.5366C11.3456 38.5247 11.393 38.535 11.4342 38.5671C11.5393 38.6318 11.5578 38.7205 11.494 38.8338L9.57795 41.6953L12.4643 44.5935ZM7.83088 38.5306C7.96067 38.5306 8.0266 38.5955 8.0266 38.7247V44.7267C8.0266 44.8561 7.96067 44.9208 7.83088 44.9208C7.70314 44.9208 7.63721 44.8561 7.63721 44.7267V38.7247C7.63721 38.5955 7.70314 38.5306 7.83088 38.5306Z" fill="black"/>
<path d="M15.5076 38.5306C15.8064 38.5306 16.0907 38.5875 16.3564 38.7003C16.6243 38.8136 16.8571 38.9713 17.059 39.1732C17.2609 39.3755 17.4195 39.6097 17.5328 39.8765C17.6462 40.1434 17.7018 40.4264 17.7018 40.7254V44.7267C17.7018 44.8561 17.6379 44.9208 17.5081 44.9208C17.3783 44.9208 17.3144 44.8561 17.3144 44.7267V42.9201H14.1623C14.0325 42.9201 13.9686 42.8554 13.9686 42.7261C13.9686 42.5967 14.0325 42.5319 14.1623 42.5319H17.3144V40.7254C17.3144 40.475 17.265 40.2404 17.1682 40.022C17.0713 39.8038 16.9416 39.6138 16.7809 39.4521C16.6202 39.2906 16.4286 39.1612 16.2102 39.0642C15.9938 38.9672 15.759 38.9188 15.5076 38.9188C15.2563 38.9188 15.0235 38.9672 14.8051 39.0642C14.5867 39.1612 14.3951 39.2906 14.2282 39.4521C14.0634 39.6138 13.9336 39.8038 13.8409 40.022C13.7482 40.2404 13.7008 40.475 13.7008 40.7254V44.7267C13.7008 44.8561 13.6369 44.9208 13.5071 44.9208C13.3774 44.9208 13.3135 44.8561 13.3135 44.7267V40.7254C13.3135 40.4264 13.3691 40.1434 13.4824 39.8765C13.5957 39.6097 13.7544 39.3755 13.9563 39.1732C14.1582 38.9713 14.391 38.8136 14.6526 38.7003C14.9163 38.5875 15.2006 38.5306 15.5076 38.5306Z" fill="black"/>
<path d="M24.0549 44.9208H21.5579C21.4281 44.9208 21.3643 44.8561 21.3643 44.7267V38.7247C21.3643 38.5955 21.4281 38.5306 21.5579 38.5306C21.6877 38.5306 21.7516 38.5955 21.7516 38.7247V44.5326H24.0549C24.1847 44.5326 24.2486 44.5976 24.2486 44.7267C24.2486 44.8561 24.1847 44.9208 24.0549 44.9208Z" fill="black"/>
<path d="M27.3294 38.8581C26.9421 38.8581 26.5774 38.9328 26.2395 39.0824C25.8996 39.232 25.6029 39.4361 25.3474 39.6949C25.094 39.9534 24.8921 40.2568 24.7479 40.6043C24.6016 40.9518 24.5295 41.3237 24.5295 41.7197C24.5295 42.1159 24.6016 42.4878 24.7479 42.8353C24.8921 43.1828 25.094 43.4882 25.3474 43.7507C25.6029 44.0134 25.8996 44.2196 26.2395 44.3692C26.5774 44.5189 26.9421 44.5935 27.3294 44.5935C27.7188 44.5935 28.0814 44.5189 28.4213 44.3692C28.7612 44.2196 29.0579 44.0134 29.3134 43.7507C29.5668 43.4882 29.7687 43.1828 29.9191 42.8353C30.0674 42.4878 30.1436 42.1159 30.1436 41.7197C30.1436 41.3237 30.0674 40.9518 29.9191 40.6043C29.7687 40.2568 29.5668 39.9534 29.3134 39.6949C29.0579 39.4361 28.7612 39.232 28.4213 39.0824C28.0814 38.9328 27.7188 38.8581 27.3294 38.8581ZM27.3294 44.9814C26.8926 44.9814 26.4806 44.8965 26.0932 44.7268C25.7059 44.5571 25.366 44.3226 25.0755 44.0234C24.7829 43.7245 24.5543 43.379 24.3894 42.9867C24.2246 42.5949 24.1401 42.1725 24.1401 41.7197C24.1401 41.2751 24.2246 40.8548 24.3894 40.4589C24.5543 40.0629 24.7829 39.7172 25.0755 39.422C25.366 39.1269 25.7059 38.8945 26.0932 38.7248C26.4806 38.555 26.8926 38.4701 27.3294 38.4701C27.7744 38.4701 28.1906 38.555 28.5779 38.7248C28.9673 38.8945 29.3072 39.1269 29.5977 39.422C29.8882 39.7172 30.1169 40.0629 30.2817 40.4589C30.4486 40.8548 30.531 41.2751 30.531 41.7197C30.531 42.1725 30.4486 42.5949 30.2817 42.9867C30.1169 43.379 29.8882 43.7245 29.5977 44.0234C29.3072 44.3226 28.9673 44.5571 28.5779 44.7268C28.1906 44.8965 27.7744 44.9814 27.3294 44.9814Z" fill="black"/>
<path d="M31.8883 44.5326H33.6951C33.9465 44.5326 34.1813 44.4863 34.3997 44.3932C34.616 44.3004 34.8076 44.1711 34.9683 44.0053C35.1311 43.8398 35.2588 43.6476 35.3577 43.4292C35.4545 43.211 35.5019 42.9766 35.5019 42.7261C35.5019 42.4757 35.4545 42.2411 35.3577 42.0227C35.2588 41.8045 35.1311 41.6148 34.9683 41.4531C34.8076 41.2913 34.616 41.1619 34.3997 41.0649C34.1813 40.9679 33.9465 40.9194 33.6951 40.9194H32.3498C32.22 40.9194 32.1561 40.8547 32.1561 40.7254C32.1561 40.5962 32.22 40.5313 32.3498 40.5313H33.6951C33.9217 40.5313 34.1133 40.4526 34.272 40.295C34.4286 40.1373 34.5089 39.9454 34.5089 39.7189C34.5089 39.5005 34.4286 39.3127 34.272 39.155C34.1133 38.9975 33.9217 38.9188 33.6951 38.9188H31.8883V44.5326ZM33.6951 44.9208H31.6946C31.5648 44.9208 31.501 44.8561 31.501 44.7267V38.7247C31.501 38.5955 31.5648 38.5306 31.6946 38.5306H33.6951C34.0268 38.5306 34.307 38.646 34.5377 38.8763C34.7685 39.1067 34.8839 39.3875 34.8839 39.7189C34.8839 39.913 34.8427 40.0908 34.7623 40.2525C34.682 40.4143 34.5728 40.5517 34.4347 40.6648C34.8633 40.8185 35.2135 41.0812 35.4834 41.4531C35.7553 41.8247 35.8893 42.2491 35.8893 42.7261C35.8893 43.0334 35.8336 43.3181 35.7203 43.5808C35.607 43.8437 35.4504 44.0762 35.2485 44.2782C35.0446 44.4803 34.8117 44.638 34.5439 44.751C34.2781 44.8641 33.9939 44.9208 33.6951 44.9208Z" fill="black"/>
<path d="M39.1282 38.5306C39.427 38.5306 39.7092 38.5875 39.977 38.7003C40.2428 38.8136 40.4777 38.9713 40.6796 39.1732C40.8815 39.3755 41.0401 39.6097 41.1534 39.8765C41.2668 40.1434 41.3224 40.4264 41.3224 40.7254V44.7267C41.3224 44.8561 41.2585 44.9208 41.1287 44.9208C40.9989 44.9208 40.935 44.8561 40.935 44.7267V42.9201H37.7808C37.6531 42.9201 37.5872 42.8554 37.5872 42.7261C37.5872 42.5967 37.6531 42.5319 37.7808 42.5319H40.935V40.7254C40.935 40.475 40.8856 40.2404 40.7888 40.022C40.6919 39.8038 40.5622 39.6138 40.4015 39.4521C40.2387 39.2906 40.0492 39.1612 39.8308 39.0642C39.6124 38.9672 39.3775 38.9188 39.1282 38.9188C38.8769 38.9188 38.642 38.9672 38.4257 39.0642C38.2073 39.1612 38.0136 39.2906 37.8488 39.4521C37.682 39.6138 37.5542 39.8038 37.4615 40.022C37.3667 40.2404 37.3214 40.475 37.3214 40.7254V44.7267C37.3214 44.8561 37.2555 44.9208 37.1278 44.9208C36.998 44.9208 36.9341 44.8561 36.9341 44.7267V40.7254C36.9341 40.4264 36.9897 40.1434 37.103 39.8765C37.2163 39.6097 37.3729 39.3755 37.5748 39.1732C37.7788 38.9713 38.0095 38.8136 38.2732 38.7003C38.5349 38.5875 38.8213 38.5306 39.1282 38.5306Z" fill="black"/>
<path d="M47.0824 44.9208C47.0247 44.9208 46.9732 44.8965 46.9237 44.8479L42.7765 39.3067V44.7267C42.7765 44.8561 42.7126 44.9208 42.5828 44.9208C42.453 44.9208 42.3892 44.8561 42.3892 44.7267V38.7247C42.3892 38.6277 42.4324 38.5671 42.5231 38.5428C42.6034 38.5187 42.6755 38.5386 42.7415 38.6035L46.8887 44.1447V38.7247C46.8887 38.5955 46.9526 38.5306 47.0824 38.5306C47.2101 38.5306 47.276 38.5955 47.276 38.7247V44.7267C47.276 44.8238 47.2307 44.8843 47.1421 44.9086C47.1338 44.9167 47.1133 44.9208 47.0824 44.9208Z" fill="black"/>
<path d="M51.4358 38.8581C51.0464 38.8581 50.6838 38.9328 50.3439 39.0824C50.004 39.232 49.7073 39.4361 49.4518 39.6949C49.1984 39.9534 48.9986 40.2568 48.8523 40.6043C48.706 40.9518 48.6339 41.3237 48.6339 41.7197C48.6339 42.1159 48.706 42.4878 48.8523 42.8353C48.9986 43.1828 49.1984 43.4882 49.4518 43.7507C49.7073 44.0134 50.004 44.2196 50.3439 44.3692C50.6838 44.5189 51.0464 44.5935 51.4358 44.5935C51.8231 44.5935 52.1857 44.5189 52.5257 44.3692C52.8656 44.2196 53.1623 44.0134 53.4178 43.7507C53.6712 43.4882 53.873 43.1828 54.0234 42.8353C54.1738 42.4878 54.248 42.1159 54.248 41.7197C54.248 41.3237 54.1738 40.9518 54.0234 40.6043C53.873 40.2568 53.6712 39.9534 53.4178 39.6949C53.1623 39.4361 52.8656 39.232 52.5257 39.0824C52.1857 38.9328 51.8231 38.8581 51.4358 38.8581ZM51.4358 44.9814C50.999 44.9814 50.587 44.8965 50.1976 44.7268C49.8103 44.5571 49.4704 44.3226 49.1799 44.0234C48.8894 43.7245 48.6607 43.379 48.4938 42.9867C48.329 42.5949 48.2466 42.1725 48.2466 41.7197C48.2466 41.2751 48.329 40.8548 48.4938 40.4589C48.6607 40.0629 48.8894 39.7172 49.1799 39.422C49.4704 39.1269 49.8103 38.8945 50.1976 38.7248C50.587 38.555 50.999 38.4701 51.4358 38.4701C51.8788 38.4701 52.2949 38.555 52.6843 38.7248C53.0716 38.8945 53.4116 39.1269 53.7021 39.422C53.9926 39.7172 54.2212 40.0629 54.3881 40.4589C54.5529 40.8548 54.6353 41.2751 54.6353 41.7197C54.6353 42.1725 54.5529 42.5949 54.3881 42.9867C54.2212 43.379 53.9926 43.7245 53.7021 44.0234C53.4116 44.3226 53.0716 44.5571 52.6843 44.7268C52.2949 44.8965 51.8788 44.9814 51.4358 44.9814Z" fill="black"/>
<path d="M57.1465 44.9208C57.0497 44.9208 56.9878 44.8765 56.9631 44.7873L54.9626 38.7852C54.9462 38.7369 54.9482 38.6882 54.9688 38.6396C54.9894 38.5912 55.0286 38.559 55.0842 38.5428C55.1336 38.5267 55.181 38.5306 55.2305 38.5549C55.2779 38.5792 55.3108 38.6155 55.3273 38.6641L57.1465 44.1204L58.9636 38.6641C58.9801 38.6155 59.013 38.5792 59.0604 38.5549C59.1099 38.5306 59.1593 38.5267 59.2067 38.5428C59.2562 38.559 59.2912 38.5912 59.3159 38.6396C59.3406 38.6882 59.3447 38.7369 59.3283 38.7852L57.3278 44.7873C57.3031 44.8765 57.2433 44.9208 57.1465 44.9208Z" fill="black"/>
<path d="M62.1902 38.5306C62.489 38.5306 62.7712 38.5875 63.0391 38.7003C63.3048 38.8136 63.5397 38.9713 63.7416 39.1732C63.9435 39.3755 64.1021 39.6097 64.2154 39.8765C64.3287 40.1434 64.3844 40.4264 64.3844 40.7254V44.7267C64.3844 44.8561 64.3205 44.9208 64.1907 44.9208C64.0609 44.9208 63.9971 44.8561 63.9971 44.7267V42.9201H60.8449C60.7151 42.9201 60.6492 42.8554 60.6492 42.7261C60.6492 42.5967 60.7151 42.5319 60.8449 42.5319H63.9971V40.7254C63.9971 40.475 63.9476 40.2404 63.8508 40.022C63.7539 39.8038 63.6241 39.6138 63.4635 39.4521C63.3007 39.2906 63.1111 39.1612 62.8928 39.0642C62.6744 38.9672 62.4416 38.9188 62.1902 38.9188C61.9389 38.9188 61.7061 38.9672 61.4877 39.0642C61.2693 39.1612 61.0757 39.2906 60.9108 39.4521C60.746 39.6138 60.6162 39.8038 60.5235 40.022C60.4308 40.2404 60.3834 40.475 60.3834 40.7254V44.7267C60.3834 44.8561 60.3196 44.9208 60.1898 44.9208C60.06 44.9208 59.9961 44.8561 59.9961 44.7267V40.7254C59.9961 40.4264 60.0517 40.1434 60.165 39.8765C60.2783 39.6097 60.4349 39.3755 60.6389 39.1732C60.8408 38.9713 61.0715 38.8136 61.3352 38.7003C61.5969 38.5875 61.8833 38.5306 62.1902 38.5306Z" fill="black"/>
<path d="M15.116 52.0856C15.5301 52.0856 15.7938 51.7722 15.7938 51.2907C15.7938 50.8095 15.5301 50.4959 15.116 50.4959C14.7019 50.4959 14.4423 50.8055 14.4423 51.2907C14.4423 51.7757 14.7019 52.0856 15.116 52.0856ZM14.2178 50.2944H14.4423V50.6453C14.6133 50.3764 14.8255 50.2534 15.1201 50.2534C15.6661 50.2534 16.0246 50.6714 16.0246 51.2907C16.0246 51.9102 15.6599 52.3318 15.1201 52.3318C14.8317 52.3318 14.6195 52.2123 14.4423 51.9438V52.996H14.2178V50.2944Z" fill="black"/>
<path d="M18.7563 51.1303C18.7295 50.731 18.4699 50.4736 18.1012 50.4736C17.7262 50.4736 17.4645 50.7347 17.4357 51.1303H18.7563ZM18.1012 52.3542C17.549 52.3542 17.1885 51.9251 17.1885 51.2907C17.1885 50.6564 17.5552 50.2272 18.1012 50.2272C18.6471 50.2272 19.0097 50.6414 19.0097 51.287V51.3466H17.4295C17.4563 51.8319 17.6994 52.1004 18.1012 52.1004C18.3937 52.1004 18.6121 51.9362 18.6945 51.649H18.9458C18.8552 52.0819 18.5338 52.3542 18.1012 52.3542Z" fill="black"/>
<path d="M20.2725 52.2833V50.2981H20.5011V50.6265C20.6 50.3729 20.7958 50.2272 21.01 50.2272C21.0883 50.2272 21.1625 50.2458 21.2387 50.2833V50.5332C21.1625 50.507 21.0965 50.4959 21.0368 50.4959C20.771 50.4959 20.5938 50.6638 20.5011 50.9998V52.2833H20.2725Z" fill="black"/>
<path d="M22.4482 51.6564C22.4812 51.955 22.6789 52.1044 23.0415 52.1044C23.433 52.1044 23.6328 51.9735 23.6328 51.7387C23.6328 51.5594 23.5298 51.4775 23.3114 51.4399L22.817 51.3542C22.442 51.2907 22.269 51.1414 22.269 50.8095C22.269 50.4623 22.5409 50.2272 23.0292 50.2272C23.5133 50.2272 23.7935 50.4772 23.7997 50.869H23.5752C23.5422 50.6004 23.3465 50.466 22.9962 50.466C22.6728 50.466 22.4997 50.5968 22.4997 50.7944C22.4997 50.9922 22.6316 51.0557 22.8953 51.1004L23.33 51.1789C23.6926 51.2421 23.8636 51.3878 23.8636 51.7124C23.8636 52.1266 23.5772 52.3542 23.0189 52.3542C22.5286 52.3542 22.2484 52.0967 22.2236 51.6564H22.4482Z" fill="black"/>
<path d="M25.901 52.1004C26.3212 52.1004 26.585 51.7832 26.585 51.2907C26.585 50.7981 26.3212 50.481 25.901 50.481C25.4827 50.481 25.217 50.7944 25.217 51.2907C25.217 51.787 25.4827 52.1004 25.901 52.1004ZM25.901 50.2272C26.4469 50.2272 26.8157 50.6564 26.8157 51.2907C26.8157 51.9251 26.4469 52.3542 25.901 52.3542C25.355 52.3542 24.9883 51.9251 24.9883 51.2907C24.9883 50.6564 25.355 50.2272 25.901 50.2272Z" fill="black"/>
<path d="M28.083 50.2981H28.2973V50.6638C28.4642 50.3952 28.7114 50.2571 29.0142 50.2571C29.4654 50.2571 29.6714 50.4922 29.6714 50.9998V52.2833H29.451V51.1675C29.451 50.6973 29.348 50.4922 28.9751 50.4922C28.5898 50.4922 28.3035 50.7608 28.3035 51.1527V52.2833H28.083V50.2981Z" fill="black"/>
<path d="M31.7788 51.3654C31.4039 51.4325 31.2143 51.4775 31.2143 51.7461C31.2143 51.9513 31.375 52.0968 31.6573 52.0968C32.0776 52.0968 32.3701 51.8469 32.3701 51.4775V51.2086C32.2691 51.2723 32.0714 51.3132 31.7788 51.3654ZM32.7842 52.2572C32.7224 52.2797 32.6585 52.2945 32.5947 52.2945C32.4422 52.2945 32.3845 52.2049 32.3701 51.981C32.1744 52.235 31.9519 52.3318 31.6367 52.3318C31.2164 52.3318 30.9897 52.1118 30.9897 51.7387C30.9897 51.5594 31.0495 51.4177 31.169 51.3132C31.2905 51.2086 31.4925 51.1715 31.7747 51.1266C32.1888 51.0594 32.3701 51.0819 32.3701 50.8169C32.3701 50.6004 32.2053 50.4848 31.8942 50.4848C31.5028 50.4848 31.3009 50.6379 31.2844 50.9476H31.0639C31.0886 50.4811 31.3544 50.2497 31.8653 50.2497C32.1744 50.2497 32.3763 50.3132 32.4937 50.4848C32.5885 50.6192 32.5947 50.772 32.5947 50.9737V51.8543C32.5947 51.9849 32.5967 52.052 32.6874 52.052C32.7121 52.052 32.7451 52.0482 32.7842 52.0333V52.2572Z" fill="black"/>
<path d="M34.0435 49.5744H34.266V52.2833H34.0435V49.5744Z" fill="black"/>
<path d="M37.6757 51.6564C37.7087 51.955 37.9085 52.1044 38.2711 52.1044C38.6626 52.1044 38.8604 51.9735 38.8604 51.7387C38.8604 51.5594 38.7594 51.4775 38.541 51.4399L38.0466 51.3542C37.6695 51.2907 37.4965 51.1414 37.4965 50.8095C37.4965 50.4623 37.7705 50.2272 38.2567 50.2272C38.7429 50.2272 39.0211 50.4772 39.0272 50.869H38.8027C38.7718 50.6004 38.576 50.466 38.2258 50.466C37.9003 50.466 37.7272 50.5968 37.7272 50.7944C37.7272 50.9922 37.8591 51.0557 38.1228 51.1004L38.5596 51.1789C38.9222 51.2421 39.0932 51.3878 39.0932 51.7124C39.0932 52.1266 38.8068 52.3542 38.2485 52.3542C37.7561 52.3542 37.478 52.0967 37.4512 51.6564H37.6757Z" fill="black"/>
<path d="M40.846 52.0743C40.9016 52.0743 40.9614 52.0632 41.0293 52.0446V52.272C40.9263 52.302 40.8336 52.317 40.7491 52.317C40.4937 52.317 40.4195 52.1454 40.4195 51.7871V50.511H40.127V50.2945H40.4195V49.7124H40.6441V50.2945H41.0335V50.511H40.6441V51.7535C40.6441 51.9809 40.6482 52.0743 40.846 52.0743Z" fill="black"/>
<path d="M42.2574 53C42.1997 53 42.1358 52.985 42.0658 52.9625V52.7126C42.1585 52.7348 42.2285 52.7462 42.2841 52.7462C42.4819 52.7462 42.5664 52.6045 42.688 52.276L41.9092 50.2945H42.1647L42.8033 52.0146L43.4482 50.2945H43.6954L42.8157 52.5222C42.6941 52.8358 42.6055 53 42.2574 53Z" fill="black"/>
<path d="M44.835 49.5744H45.0554V52.2833H44.835V49.5744Z" fill="black"/>
<path d="M46.4619 50.2944H46.6824V52.2833H46.4619V50.2944ZM46.4619 49.5744H46.6824V49.884H46.4619V49.5744Z" fill="black"/>
<path d="M48.1513 51.6564C48.1843 51.955 48.3821 52.1044 48.7467 52.1044C49.1382 52.1044 49.3359 51.9735 49.3359 51.7387C49.3359 51.5594 49.2329 51.4775 49.0146 51.4399L48.5201 51.3542C48.1451 51.2907 47.9721 51.1414 47.9721 50.8095C47.9721 50.4623 48.244 50.2272 48.7323 50.2272C49.2185 50.2272 49.4967 50.4772 49.5028 50.869H49.2783C49.2474 50.6004 49.0516 50.466 48.7014 50.466C48.3759 50.466 48.2028 50.5968 48.2028 50.7944C48.2028 50.9922 48.3347 51.0557 48.5984 51.1004L49.0352 51.1789C49.3978 51.2421 49.5667 51.3878 49.5667 51.7124C49.5667 52.1266 49.2824 52.3542 48.7241 52.3542C48.2317 52.3542 47.9535 52.0967 47.9268 51.6564H48.1513Z" fill="black"/>
<path d="M51.3221 52.0743C51.3777 52.0743 51.4374 52.0632 51.5054 52.0446V52.272C51.4024 52.302 51.3097 52.317 51.2252 52.317C50.9698 52.317 50.8956 52.1454 50.8956 51.7871V50.511H50.603V50.2945H50.8956V49.7124H51.1202V50.2945H51.5075V50.511H51.1202V51.7535C51.1202 51.9809 51.1243 52.0743 51.3221 52.0743Z" fill="black"/>
<path d="M40.3311 17.7066C40.2713 17.6036 40.2095 17.4985 40.1457 17.3975C40.0777 17.4161 40.0076 17.4367 39.9376 17.4532C40.0035 17.5541 40.0653 17.6571 40.1271 17.7622C41.0315 19.3074 41.5487 21.1039 41.5487 23.0199C41.5487 28.7782 36.8637 33.4652 31.1054 33.4652C25.347 33.4652 20.6621 28.7782 20.6621 23.0199C20.6621 22.033 20.8001 21.0792 21.0556 20.1747C22.2979 15.7947 26.3339 12.5766 31.1054 12.5766C32.9431 12.5766 34.6716 13.0546 36.1735 13.8931C36.359 13.994 36.5423 14.1032 36.7195 14.2186C36.7525 14.1568 36.7834 14.095 36.8163 14.0352C36.6371 13.9199 36.4558 13.8107 36.2683 13.7097C34.7396 12.8568 32.9781 12.3706 31.1054 12.3706C26.2247 12.3706 22.1001 15.6731 20.8475 20.1603C20.592 21.0709 20.4561 22.0289 20.4561 23.0199C20.4561 28.8936 25.2337 33.6713 31.1054 33.6713C36.9791 33.6713 41.7547 28.8936 41.7547 23.0199C41.7547 21.0874 41.2355 19.2723 40.3311 17.7066Z" fill="black"/>
<path d="M58.218 6.16317C58.1891 6.40834 58.1459 6.6432 58.0882 6.86777C58.0305 7.09027 57.9522 7.31896 57.8492 7.5497C56.6522 9.97459 53.5989 12.2635 48.6915 14.4123C46.6271 15.3229 44.4247 16.1305 42.0864 16.8393C41.4518 17.0309 40.8049 17.2184 40.1456 17.3976C40.0777 17.4161 40.0076 17.4367 39.9376 17.4532C38.2379 17.9168 36.464 18.3391 34.616 18.7223C34.6592 18.6502 34.6943 18.5781 34.7252 18.506C34.754 18.4339 34.7829 18.3618 34.8117 18.2897H34.7891C35.3948 16.8805 36.0376 15.5228 36.7195 14.2187C36.7525 14.1569 36.7834 14.095 36.8163 14.0353C36.9976 13.6912 37.181 13.3534 37.3664 13.0175C38.2894 11.3488 39.301 9.75827 40.397 8.24194C43.9921 3.17584 47.5357 0.561413 51.0298 0.402775C53.0942 0.330667 54.8474 0.901352 56.2916 2.11483C57.7338 3.28297 58.3766 4.63242 58.218 6.16317ZM56.5718 1.8985C54.9855 0.52639 53.1374 -0.101978 51.0298 0.0133934C45.8277 0.345091 40.9059 4.91055 36.2683 13.7098C36.2353 13.7716 36.2024 13.8313 36.1735 13.8931C35.3845 15.395 34.6077 17.0206 33.8372 18.7656V18.8315C33.4746 19.668 33.1944 20.4941 32.9925 21.31C32.7906 22.1258 32.7041 22.9087 32.7329 23.6586C32.7474 24.3385 32.8916 24.8474 33.1656 25.1853C33.4396 25.5252 33.7857 25.723 34.2039 25.7807C34.5707 25.8322 34.9765 25.7765 35.4215 25.6158C35.4834 25.5952 35.5472 25.5705 35.6111 25.5437C35.6482 25.5272 35.6873 25.5128 35.7244 25.4943C35.8089 25.4572 35.8933 25.416 35.9778 25.3727C36.1138 25.3006 36.2477 25.2223 36.3816 25.1358C36.2456 25.1688 36.1117 25.1997 35.9757 25.2285C35.9696 25.1214 35.949 25.0369 35.9098 24.971C35.8933 24.9772 35.8769 24.9854 35.8604 24.9916C35.6255 25.0884 35.3989 25.1502 35.1825 25.175C35.1805 25.177 35.1805 25.177 35.1784 25.175C35.0342 25.1935 34.8921 25.1914 34.7561 25.175C34.4182 25.1317 34.136 24.9586 33.9114 24.6558C33.6889 24.3529 33.59 23.8626 33.6209 23.1827C33.6333 22.5914 33.7239 21.9239 33.8908 21.1802C34.0556 20.4364 34.2616 19.7256 34.5089 19.0478C36.4105 18.6832 38.2832 18.2546 40.1271 17.7623C40.1951 17.7437 40.2631 17.7252 40.3311 17.7066C40.5453 17.6489 40.7596 17.5913 40.9718 17.5315C43.0856 16.9402 45.1747 16.2459 47.239 15.4527C53.2446 13.1865 56.9324 10.7472 58.3045 8.13481C58.5497 7.62799 58.7083 7.09439 58.7804 6.53195C58.9246 4.7993 58.1891 3.25413 56.5718 1.8985Z" fill="black"/>
<path d="M35.9761 25.2285C35.9699 25.1214 35.9493 25.0369 35.9102 24.971C35.8546 24.8618 35.7536 24.8061 35.6135 24.8061C35.5105 24.8061 35.3993 24.835 35.2777 24.8927C35.1541 24.9524 35.0923 25.0225 35.0923 25.1111C35.0923 25.1543 35.1211 25.1749 35.1788 25.1749C35.1809 25.177 35.1809 25.177 35.1829 25.1749C35.253 25.1749 35.3333 25.1852 35.4178 25.2079C35.4878 25.2244 35.5517 25.2573 35.6073 25.3047C35.6197 25.313 35.6321 25.3253 35.6444 25.3377C35.6836 25.3748 35.7104 25.4283 35.7248 25.4943C35.733 25.521 35.7371 25.5499 35.7392 25.5828C35.7433 25.6035 35.7433 25.6261 35.7433 25.6508C35.7433 26.3596 35.0573 27.297 33.6852 28.4672C32.4428 29.5199 31.4106 30.1627 30.5886 30.3935C30.4011 30.4512 30.191 30.48 29.9602 30.48C29.4699 30.48 29.0723 30.3214 28.7694 30.0041C28.4377 29.6436 28.3018 29.1306 28.3595 28.4672C28.4151 27.4556 28.8416 26.1 29.6368 24.3962C30.4588 22.6779 31.3818 21.1616 32.4078 19.8492C32.6241 19.5876 32.6324 19.4228 32.4305 19.3507C32.2409 19.2641 31.9896 19.293 31.6723 19.4372C31.5116 19.4949 31.3324 19.6103 31.1305 19.7833C30.7555 19.9275 30.0262 20.4323 28.9425 21.2996C28.481 21.6746 28.0298 22.0537 27.5889 22.4369C27.1501 22.818 26.7277 23.2053 26.3239 23.5947C26.2374 23.6957 26.1488 23.7451 26.0623 23.7451C25.9469 23.7451 25.8892 23.6668 25.8892 23.5082C25.8892 23.3928 25.9181 23.2981 25.9758 23.2259C26.2663 22.577 26.6083 21.9383 27.0059 21.3099C27.4015 20.6816 27.8753 20.0511 28.4233 19.4145C28.4336 19.4042 28.4419 19.396 28.4481 19.3857C28.4748 19.3486 28.4893 19.3095 28.4893 19.2641C28.4748 19.2497 28.4233 19.2497 28.3368 19.2641C28.277 19.2744 28.2235 19.2868 28.1761 19.2992C28.0957 19.3198 28.0298 19.3445 27.9804 19.3713C27.9 19.4145 27.8382 19.4722 27.795 19.5443C27.7908 19.5484 27.7888 19.5526 27.7847 19.5567C27.5003 19.9007 27.1913 20.2984 26.8637 20.7475C26.532 21.2007 26.1777 21.7179 25.8027 22.2947C25.0095 23.5082 24.4471 24.4683 24.1154 25.1749C24.0289 25.348 24.0124 25.4634 24.0721 25.521C24.0845 25.6076 24.1731 25.6364 24.3317 25.6076C24.923 25.4778 25.2918 25.3191 25.436 25.1317C26.2869 24.1366 27.1213 23.2486 27.9371 22.4678C28.7509 21.689 29.5709 21.0112 30.395 20.4323C30.5103 20.3602 30.6257 20.3251 30.7411 20.3251C31.0007 20.3251 31.1305 20.4405 31.1305 20.6713C31.1305 20.7578 31.1078 20.8299 31.0645 20.8876C30.6463 21.4645 30.2528 22.0599 29.8861 22.6738C29.5173 23.2878 29.1671 23.9264 28.8354 24.5898C28.0113 26.1638 27.558 27.47 27.4715 28.5104C27.3994 29.4334 27.5642 30.1112 27.968 30.5459C28.345 30.9209 28.8209 31.0795 29.3978 31.0218C31.0151 30.8488 32.517 30.0762 33.9015 28.7041C34.4062 28.1993 34.8265 27.7152 35.1582 27.2537C35.4899 26.7922 35.7206 26.3513 35.8504 25.9331C35.8958 25.7951 35.9308 25.6694 35.9514 25.5602C35.9658 25.4922 35.9741 25.4304 35.9782 25.3727C35.9802 25.35 35.9802 25.3274 35.9802 25.3047C35.9802 25.2779 35.9802 25.2512 35.9761 25.2285Z" fill="black"/>
<path d="M28.1014 19.4702C28.771 18.7712 29.4158 17.8756 30.4541 17.7536C30.6643 17.7289 31.1114 17.7476 31.0599 18.0713C31.0104 18.3704 30.5901 18.5213 30.3511 18.6076C29.766 18.8183 29.1686 18.998 28.569 19.156C26.1544 19.7914 23.6595 20.0256 21.1666 19.8936C18.8777 19.7722 16.5579 19.2959 14.5245 18.2081C12.695 17.2291 10.882 15.5224 10.7584 13.32C10.6801 11.9273 11.2961 10.5546 12.0831 9.43977C12.866 8.33302 13.8343 7.37687 14.8005 6.43473C14.8438 6.39394 14.7944 6.19018 14.782 6.20233C13.8178 7.08494 12.8392 7.97063 12.079 9.03947C11.36 10.0484 10.8284 11.214 10.7007 12.4555C10.4617 14.7799 11.7617 16.794 13.5891 18.1195C15.6473 19.6103 18.1855 20.2572 20.6866 20.4385C23.4659 20.6396 26.2966 20.2741 28.9481 19.4343C29.319 19.3173 29.6857 19.1912 30.0483 19.0557C30.3367 18.9488 30.6581 18.854 30.8909 18.6447C31.1608 18.4018 31.2927 17.7724 30.9589 17.5169C30.7405 17.3504 30.3944 17.4275 30.1534 17.4944C29.8876 17.5688 29.6404 17.699 29.4137 17.8566C28.8657 18.2411 28.4434 18.7765 28.089 19.3385C28.0746 19.3627 28.0931 19.4791 28.1014 19.4702Z" fill="black"/>
<path d="M57.0479 27.0476C56.4607 25.6714 55.3935 24.5712 54.1162 23.811C51.2854 22.1278 47.8696 22.3956 44.7998 23.1847C43.094 23.6235 41.4355 24.2231 39.7502 24.7319C38.4976 25.109 37.2388 25.3994 35.9512 25.5601C35.8811 25.5684 35.809 25.5766 35.7389 25.5828C35.6339 25.5952 35.5267 25.6055 35.4217 25.6158C35.1641 25.6405 34.9046 25.659 34.645 25.6714C34.6161 25.6714 34.6058 25.4736 34.6408 25.4695C34.9643 25.4242 35.2857 25.3685 35.6071 25.3047C35.7307 25.282 35.8543 25.2552 35.9759 25.2285C36.1118 25.1996 36.2458 25.1687 36.3817 25.1357C37.7703 24.802 39.1363 24.3302 40.4775 23.8708C43.7965 22.7335 47.3627 21.4232 50.9269 21.9857C53.6197 22.4101 56.2691 24.0665 57.087 26.7798C57.0994 26.8272 57.0767 27.1177 57.0479 27.0476Z" fill="black"/>
<path d="M41.3982 47.8046H24.0366V47.5986H41.3982V47.8046Z" fill="black"/>
</svg>
